%TF.GenerationSoftware,KiCad,Pcbnew,(6.0.5)*%
%TF.CreationDate,2022-08-25T10:58:41-04:00*%
%TF.ProjectId,TLM-18-Wrap-Up-Supervisor,544c4d2d-3138-42d5-9772-61702d55702d,A*%
%TF.SameCoordinates,Original*%
%TF.FileFunction,Soldermask,Bot*%
%TF.FilePolarity,Negative*%
%FSLAX46Y46*%
G04 Gerber Fmt 4.6, Leading zero omitted, Abs format (unit mm)*
G04 Created by KiCad (PCBNEW (6.0.5)) date 2022-08-25 10:58:41*
%MOMM*%
%LPD*%
G01*
G04 APERTURE LIST*
%ADD10R,1.600000X1.600000*%
%ADD11C,1.600000*%
%ADD12R,1.220000X1.220000*%
%ADD13C,1.220000*%
%ADD14R,1.800000X1.800000*%
%ADD15O,1.800000X1.800000*%
%ADD16R,3.200000X3.200000*%
%ADD17O,3.200000X3.200000*%
%ADD18O,1.600000X1.600000*%
%ADD19C,4.000000*%
%ADD20C,2.780000*%
%ADD21R,1.250000X1.250000*%
%ADD22C,1.250000*%
%ADD23C,6.400000*%
%ADD24C,2.600000*%
%ADD25R,1.700000X1.700000*%
%ADD26O,1.700000X1.700000*%
%ADD27C,1.800000*%
G04 APERTURE END LIST*
D10*
%TO.C,X1*%
X105156000Y-131572000D03*
D11*
X112776000Y-131572000D03*
X112776000Y-123952000D03*
X105156000Y-123952000D03*
%TD*%
D12*
%TO.C,U2*%
X108810000Y-114620000D03*
D13*
X108810000Y-112080000D03*
X108810000Y-109540000D03*
X108810000Y-107000000D03*
X108810000Y-104460000D03*
X108810000Y-101920000D03*
X108810000Y-99380000D03*
X101190000Y-99380000D03*
X101190000Y-101920000D03*
X101190000Y-104460000D03*
X101190000Y-107000000D03*
X101190000Y-109540000D03*
X101190000Y-112080000D03*
X101190000Y-114620000D03*
%TD*%
D11*
%TO.C,C4*%
X142000000Y-83500000D03*
X142000000Y-88500000D03*
%TD*%
D14*
%TO.C,U1*%
X123300000Y-89150000D03*
D15*
X125000000Y-85450000D03*
X126700000Y-89150000D03*
X128400000Y-85450000D03*
X130100000Y-89150000D03*
%TD*%
D16*
%TO.C,D1*%
X134000000Y-98500000D03*
D17*
X149240000Y-98500000D03*
%TD*%
D11*
%TO.C,R2*%
X164000000Y-104000000D03*
D18*
X156380000Y-104000000D03*
%TD*%
D11*
%TO.C,R3*%
X154000000Y-79000000D03*
D18*
X154000000Y-86620000D03*
%TD*%
D10*
%TO.C,A1*%
X141950000Y-129610000D03*
D18*
X144490000Y-129610000D03*
X147030000Y-129610000D03*
X149570000Y-129610000D03*
X152110000Y-129610000D03*
X154650000Y-129610000D03*
X157190000Y-129610000D03*
X159730000Y-129610000D03*
X162270000Y-129610000D03*
X164810000Y-129610000D03*
X167350000Y-129610000D03*
X169890000Y-129610000D03*
X172430000Y-129610000D03*
X174970000Y-129610000D03*
X177510000Y-129610000D03*
X177510000Y-114370000D03*
X174970000Y-114370000D03*
X172430000Y-114370000D03*
X169890000Y-114370000D03*
X167350000Y-114370000D03*
X164810000Y-114370000D03*
X162270000Y-114370000D03*
X159730000Y-114370000D03*
X157190000Y-114370000D03*
X154650000Y-114370000D03*
X152110000Y-114370000D03*
X149570000Y-114370000D03*
X147030000Y-114370000D03*
X144490000Y-114370000D03*
X141950000Y-114370000D03*
%TD*%
D19*
%TO.C,J2*%
X90702331Y-125040000D03*
X90702331Y-100040000D03*
D10*
X92122331Y-107000000D03*
D11*
X92122331Y-109770000D03*
X92122331Y-112540000D03*
X92122331Y-115310000D03*
X92122331Y-118080000D03*
X89282331Y-108385000D03*
X89282331Y-111155000D03*
X89282331Y-113925000D03*
X89282331Y-116695000D03*
%TD*%
D20*
%TO.C,F1*%
X100000000Y-81000000D03*
X96600000Y-81000000D03*
X100000000Y-90920000D03*
X96600000Y-90920000D03*
%TD*%
D11*
%TO.C,C1*%
X112000000Y-88500000D03*
X112000000Y-83500000D03*
%TD*%
D21*
%TO.C,U3*%
X156065000Y-91190000D03*
D22*
X156065000Y-93730000D03*
X156065000Y-96270000D03*
X156065000Y-98810000D03*
X163935000Y-98810000D03*
X163935000Y-96270000D03*
X163935000Y-93730000D03*
X163935000Y-91190000D03*
%TD*%
D23*
%TO.C,*%
X183000000Y-135000000D03*
%TD*%
%TO.C,*%
X83000000Y-75000000D03*
%TD*%
D24*
%TO.C,L1*%
X127000000Y-98500000D03*
X122000000Y-98500000D03*
%TD*%
D19*
%TO.C,J3*%
X174420000Y-82040000D03*
X174420000Y-107040000D03*
D10*
X173000000Y-89000000D03*
D11*
X173000000Y-91770000D03*
X173000000Y-94540000D03*
X173000000Y-97310000D03*
X173000000Y-100080000D03*
X175840000Y-90385000D03*
X175840000Y-93155000D03*
X175840000Y-95925000D03*
X175840000Y-98695000D03*
%TD*%
D25*
%TO.C,J1*%
X86000000Y-87880000D03*
D26*
X86000000Y-85340000D03*
%TD*%
D14*
%TO.C,D2*%
X161000000Y-83000000D03*
D27*
X163540000Y-83000000D03*
%TD*%
D23*
%TO.C,*%
X183000000Y-75000000D03*
%TD*%
%TO.C,REF\u002A\u002A*%
X83000000Y-135000000D03*
%TD*%
M02*
