M48
; DRILL file {KiCad (6.0.5)} date Sat Jun 18 16:03:27 2022
; FORMAT={-:-/ absolute / inch / decimal}
; #@! TF.CreationDate,2022-06-18T16:03:27-04:00
; #@! TF.GenerationSoftware,Kicad,Pcbnew,(6.0.5)
; #@! TF.FileFunction,Plated,1,2,PTH
FMAT,2
INCH
; #@! TA.AperFunction,Plated,PTH,ViaDrill
T1C0.0157
; #@! TA.AperFunction,Plated,PTH,ComponentDrill
T2C0.0197
; #@! TA.AperFunction,Plated,PTH,ComponentDrill
T3C0.0315
; #@! TA.AperFunction,Plated,PTH,ComponentDrill
T4C0.0319
; #@! TA.AperFunction,Plated,PTH,ComponentDrill
T5C0.0327
; #@! TA.AperFunction,Plated,PTH,ComponentDrill
T6C0.0354
; #@! TA.AperFunction,Plated,PTH,ComponentDrill
T7C0.0394
; #@! TA.AperFunction,Plated,PTH,ComponentDrill
T8C0.0433
; #@! TA.AperFunction,Plated,PTH,ComponentDrill
T9C0.0512
; #@! TA.AperFunction,Plated,PTH,ComponentDrill
T10C0.0630
; #@! TA.AperFunction,Plated,PTH,ComponentDrill
T11C0.0701
; #@! TA.AperFunction,Plated,PTH,ComponentDrill
T12C0.1260
%
G90
G05
T1
X4.9606Y-4.5894
X5.035Y-4.7638
T2
X4.0965Y-4.8543
X4.1713Y-4.8543
T3
X3.8976Y-4.8543
X3.9839Y-4.7362
X3.9961Y-4.8543
X4.2717Y-4.8543
X4.2839Y-4.7362
X4.3701Y-4.8543
X4.4094Y-3.2874
X4.4094Y-3.4843
X5.5906Y-3.2874
X5.5906Y-3.4843
X6.063Y-3.1102
X6.063Y-3.4102
X6.1567Y-4.0945
X6.4567Y-4.0945
T4
X3.9839Y-3.9126
X3.9839Y-4.0126
X3.9839Y-4.1126
X3.9839Y-4.2126
X3.9839Y-4.3126
X3.9839Y-4.4126
X3.9839Y-4.5126
X4.2839Y-3.9126
X4.2839Y-4.0126
X4.2839Y-4.1126
X4.2839Y-4.2126
X4.2839Y-4.3126
X4.2839Y-4.4126
X4.2839Y-4.5126
T5
X6.1443Y-3.5902
X6.1443Y-3.6902
X6.1443Y-3.7902
X6.1443Y-3.8902
X6.4541Y-3.5902
X6.4541Y-3.6902
X6.4541Y-3.7902
X6.4541Y-3.8902
T6
X6.3386Y-3.2677
X6.4386Y-3.2677
T7
X3.3858Y-3.3598
X3.3858Y-3.4598
X3.448Y-4.2671
X3.448Y-4.3762
X3.448Y-4.4852
X3.448Y-4.5943
X3.5598Y-4.2126
X3.5598Y-4.3217
X3.5598Y-4.4307
X3.5598Y-4.5398
X3.5598Y-4.6488
X5.5886Y-4.5028
X5.5886Y-5.1028
X5.6886Y-4.5028
X5.6886Y-5.1028
X5.7886Y-4.5028
X5.7886Y-5.1028
X5.8886Y-4.5028
X5.8886Y-5.1028
X5.9886Y-4.5028
X5.9886Y-5.1028
X6.0886Y-4.5028
X6.0886Y-5.1028
X6.1886Y-4.5028
X6.1886Y-5.1028
X6.2886Y-4.5028
X6.2886Y-5.1028
X6.3886Y-4.5028
X6.3886Y-5.1028
X6.4886Y-4.5028
X6.4886Y-5.1028
X6.5886Y-4.5028
X6.5886Y-5.1028
X6.6886Y-4.5028
X6.6886Y-5.1028
X6.7886Y-4.5028
X6.7886Y-5.1028
X6.811Y-3.5039
X6.811Y-3.613
X6.811Y-3.722
X6.811Y-3.8311
X6.811Y-3.9402
X6.8886Y-4.5028
X6.8886Y-5.1028
X6.9228Y-3.5585
X6.9228Y-3.6675
X6.9228Y-3.7766
X6.9228Y-3.8856
X6.9886Y-4.5028
X6.9886Y-5.1028
T8
X4.8543Y-3.5098
X4.9213Y-3.3642
X4.9882Y-3.5098
X5.0551Y-3.3642
X5.122Y-3.5098
T9
X4.8031Y-3.878
X5.0Y-3.878
T10
X5.2756Y-3.878
X5.8756Y-3.878
T11
X3.8031Y-3.189
X3.8031Y-3.5795
X3.937Y-3.189
X3.937Y-3.5795
T12
X3.2677Y-2.9528
X3.2677Y-5.315
X3.5039Y-3.9386
X3.5039Y-4.9228
X6.8669Y-3.2299
X6.8669Y-4.2142
X7.2047Y-2.9528
X7.2047Y-5.315
T0
M30
