%TF.GenerationSoftware,KiCad,Pcbnew,(6.0.5)*%
%TF.CreationDate,2022-06-18T16:03:33-04:00*%
%TF.ProjectId,TLM-18-Wrap-Up-Supervisor,544c4d2d-3138-42d5-9772-61702d55702d,A*%
%TF.SameCoordinates,Original*%
%TF.FileFunction,Legend,Top*%
%TF.FilePolarity,Positive*%
%FSLAX46Y46*%
G04 Gerber Fmt 4.6, Leading zero omitted, Abs format (unit mm)*
G04 Created by KiCad (PCBNEW (6.0.5)) date 2022-06-18 16:03:33*
%MOMM*%
%LPD*%
G01*
G04 APERTURE LIST*
%ADD10C,0.300000*%
%ADD11C,0.150000*%
%ADD12C,0.120000*%
%ADD13C,0.127000*%
%ADD14C,0.200000*%
G04 APERTURE END LIST*
D10*
X91882857Y-88094285D02*
X89597142Y-88094285D01*
X90740000Y-89237142D02*
X90740000Y-86951428D01*
D11*
X148153333Y-121452380D02*
X148153333Y-122261904D01*
X148200952Y-122357142D01*
X148248571Y-122404761D01*
X148343809Y-122452380D01*
X148534285Y-122452380D01*
X148629523Y-122404761D01*
X148677142Y-122357142D01*
X148724761Y-122261904D01*
X148724761Y-121452380D01*
X149153333Y-122404761D02*
X149296190Y-122452380D01*
X149534285Y-122452380D01*
X149629523Y-122404761D01*
X149677142Y-122357142D01*
X149724761Y-122261904D01*
X149724761Y-122166666D01*
X149677142Y-122071428D01*
X149629523Y-122023809D01*
X149534285Y-121976190D01*
X149343809Y-121928571D01*
X149248571Y-121880952D01*
X149200952Y-121833333D01*
X149153333Y-121738095D01*
X149153333Y-121642857D01*
X149200952Y-121547619D01*
X149248571Y-121500000D01*
X149343809Y-121452380D01*
X149581904Y-121452380D01*
X149724761Y-121500000D01*
X150486666Y-121928571D02*
X150629523Y-121976190D01*
X150677142Y-122023809D01*
X150724761Y-122119047D01*
X150724761Y-122261904D01*
X150677142Y-122357142D01*
X150629523Y-122404761D01*
X150534285Y-122452380D01*
X150153333Y-122452380D01*
X150153333Y-121452380D01*
X150486666Y-121452380D01*
X150581904Y-121500000D01*
X150629523Y-121547619D01*
X150677142Y-121642857D01*
X150677142Y-121738095D01*
X150629523Y-121833333D01*
X150581904Y-121880952D01*
X150486666Y-121928571D01*
X150153333Y-121928571D01*
X151915238Y-122452380D02*
X151915238Y-121452380D01*
X152296190Y-121452380D01*
X152391428Y-121500000D01*
X152439047Y-121547619D01*
X152486666Y-121642857D01*
X152486666Y-121785714D01*
X152439047Y-121880952D01*
X152391428Y-121928571D01*
X152296190Y-121976190D01*
X151915238Y-121976190D01*
X153105714Y-121452380D02*
X153296190Y-121452380D01*
X153391428Y-121500000D01*
X153486666Y-121595238D01*
X153534285Y-121785714D01*
X153534285Y-122119047D01*
X153486666Y-122309523D01*
X153391428Y-122404761D01*
X153296190Y-122452380D01*
X153105714Y-122452380D01*
X153010476Y-122404761D01*
X152915238Y-122309523D01*
X152867619Y-122119047D01*
X152867619Y-121785714D01*
X152915238Y-121595238D01*
X153010476Y-121500000D01*
X153105714Y-121452380D01*
X154534285Y-122452380D02*
X154200952Y-121976190D01*
X153962857Y-122452380D02*
X153962857Y-121452380D01*
X154343809Y-121452380D01*
X154439047Y-121500000D01*
X154486666Y-121547619D01*
X154534285Y-121642857D01*
X154534285Y-121785714D01*
X154486666Y-121880952D01*
X154439047Y-121928571D01*
X154343809Y-121976190D01*
X153962857Y-121976190D01*
X154820000Y-121452380D02*
X155391428Y-121452380D01*
X155105714Y-122452380D02*
X155105714Y-121452380D01*
X156343809Y-121452380D02*
X156915238Y-121452380D01*
X156629523Y-122452380D02*
X156629523Y-121452380D01*
X157248571Y-122452380D02*
X157248571Y-121452380D01*
X157248571Y-121928571D02*
X157820000Y-121928571D01*
X157820000Y-122452380D02*
X157820000Y-121452380D01*
X158296190Y-122452380D02*
X158296190Y-121452380D01*
X158724761Y-122404761D02*
X158867619Y-122452380D01*
X159105714Y-122452380D01*
X159200952Y-122404761D01*
X159248571Y-122357142D01*
X159296190Y-122261904D01*
X159296190Y-122166666D01*
X159248571Y-122071428D01*
X159200952Y-122023809D01*
X159105714Y-121976190D01*
X158915238Y-121928571D01*
X158820000Y-121880952D01*
X158772380Y-121833333D01*
X158724761Y-121738095D01*
X158724761Y-121642857D01*
X158772380Y-121547619D01*
X158820000Y-121500000D01*
X158915238Y-121452380D01*
X159153333Y-121452380D01*
X159296190Y-121500000D01*
X160486666Y-122452380D02*
X160486666Y-121452380D01*
X160724761Y-121452380D01*
X160867619Y-121500000D01*
X160962857Y-121595238D01*
X161010476Y-121690476D01*
X161058095Y-121880952D01*
X161058095Y-122023809D01*
X161010476Y-122214285D01*
X160962857Y-122309523D01*
X160867619Y-122404761D01*
X160724761Y-122452380D01*
X160486666Y-122452380D01*
X162058095Y-122452380D02*
X161724761Y-121976190D01*
X161486666Y-122452380D02*
X161486666Y-121452380D01*
X161867619Y-121452380D01*
X161962857Y-121500000D01*
X162010476Y-121547619D01*
X162058095Y-121642857D01*
X162058095Y-121785714D01*
X162010476Y-121880952D01*
X161962857Y-121928571D01*
X161867619Y-121976190D01*
X161486666Y-121976190D01*
X162486666Y-121928571D02*
X162820000Y-121928571D01*
X162962857Y-122452380D02*
X162486666Y-122452380D01*
X162486666Y-121452380D01*
X162962857Y-121452380D01*
X163962857Y-122357142D02*
X163915238Y-122404761D01*
X163772380Y-122452380D01*
X163677142Y-122452380D01*
X163534285Y-122404761D01*
X163439047Y-122309523D01*
X163391428Y-122214285D01*
X163343809Y-122023809D01*
X163343809Y-121880952D01*
X163391428Y-121690476D01*
X163439047Y-121595238D01*
X163534285Y-121500000D01*
X163677142Y-121452380D01*
X163772380Y-121452380D01*
X163915238Y-121500000D01*
X163962857Y-121547619D01*
X164248571Y-121452380D02*
X164820000Y-121452380D01*
X164534285Y-122452380D02*
X164534285Y-121452380D01*
X165153333Y-122452380D02*
X165153333Y-121452380D01*
X165820000Y-121452380D02*
X166010476Y-121452380D01*
X166105714Y-121500000D01*
X166200952Y-121595238D01*
X166248571Y-121785714D01*
X166248571Y-122119047D01*
X166200952Y-122309523D01*
X166105714Y-122404761D01*
X166010476Y-122452380D01*
X165820000Y-122452380D01*
X165724761Y-122404761D01*
X165629523Y-122309523D01*
X165581904Y-122119047D01*
X165581904Y-121785714D01*
X165629523Y-121595238D01*
X165724761Y-121500000D01*
X165820000Y-121452380D01*
X166677142Y-122452380D02*
X166677142Y-121452380D01*
X167248571Y-122452380D01*
X167248571Y-121452380D01*
X168486666Y-122071428D02*
X169248571Y-122071428D01*
X169724761Y-121785714D02*
X170486666Y-122071428D01*
X169724761Y-122357142D01*
D10*
X91882857Y-85554285D02*
X89597142Y-85554285D01*
D11*
X116482470Y-129902380D02*
X116607470Y-128902380D01*
X116851517Y-129616666D01*
X117274136Y-128902380D01*
X117149136Y-129902380D01*
X118053898Y-129902380D02*
X118119375Y-129378571D01*
X118083660Y-129283333D01*
X117994375Y-129235714D01*
X117803898Y-129235714D01*
X117702708Y-129283333D01*
X118059851Y-129854761D02*
X117958660Y-129902380D01*
X117720565Y-129902380D01*
X117631279Y-129854761D01*
X117595565Y-129759523D01*
X117607470Y-129664285D01*
X117666994Y-129569047D01*
X117768184Y-129521428D01*
X118006279Y-129521428D01*
X118107470Y-129473809D01*
X118958660Y-129902380D02*
X119083660Y-128902380D01*
X118964613Y-129854761D02*
X118863422Y-129902380D01*
X118672946Y-129902380D01*
X118583660Y-129854761D01*
X118541994Y-129807142D01*
X118506279Y-129711904D01*
X118541994Y-129426190D01*
X118601517Y-129330952D01*
X118655089Y-129283333D01*
X118756279Y-129235714D01*
X118946755Y-129235714D01*
X119036041Y-129283333D01*
X119821755Y-129854761D02*
X119720565Y-129902380D01*
X119530089Y-129902380D01*
X119440803Y-129854761D01*
X119405089Y-129759523D01*
X119452708Y-129378571D01*
X119512232Y-129283333D01*
X119613422Y-129235714D01*
X119803898Y-129235714D01*
X119893184Y-129283333D01*
X119928898Y-129378571D01*
X119916994Y-129473809D01*
X119428898Y-129569047D01*
X120994375Y-129235714D02*
X121375327Y-129235714D01*
X121053898Y-129902380D02*
X121161041Y-129045238D01*
X121220565Y-128950000D01*
X121321755Y-128902380D01*
X121416994Y-128902380D01*
X121768184Y-129902380D02*
X121678898Y-129854761D01*
X121637232Y-129807142D01*
X121601517Y-129711904D01*
X121637232Y-129426190D01*
X121696755Y-129330952D01*
X121750327Y-129283333D01*
X121851517Y-129235714D01*
X121994374Y-129235714D01*
X122083660Y-129283333D01*
X122125327Y-129330952D01*
X122161041Y-129426190D01*
X122125327Y-129711904D01*
X122065803Y-129807142D01*
X122012232Y-129854761D01*
X121911041Y-129902380D01*
X121768184Y-129902380D01*
X122530089Y-129902380D02*
X122613422Y-129235714D01*
X122589613Y-129426190D02*
X122649136Y-129330952D01*
X122702708Y-129283333D01*
X122803898Y-129235714D01*
X122899136Y-129235714D01*
X123851517Y-129235714D02*
X124232470Y-129235714D01*
X124036041Y-128902380D02*
X123928898Y-129759523D01*
X123964613Y-129854761D01*
X124053898Y-129902380D01*
X124149136Y-129902380D01*
X124482470Y-129902380D02*
X124607470Y-128902380D01*
X124911041Y-129902380D02*
X124976517Y-129378571D01*
X124940803Y-129283333D01*
X124851517Y-129235714D01*
X124708660Y-129235714D01*
X124607470Y-129283333D01*
X124553898Y-129330952D01*
X125774136Y-129854761D02*
X125672946Y-129902380D01*
X125482470Y-129902380D01*
X125393184Y-129854761D01*
X125357470Y-129759523D01*
X125405089Y-129378571D01*
X125464613Y-129283333D01*
X125565803Y-129235714D01*
X125756279Y-129235714D01*
X125845565Y-129283333D01*
X125881279Y-129378571D01*
X125869375Y-129473809D01*
X125381279Y-129569047D01*
X111893184Y-130512380D02*
X112464613Y-130512380D01*
X112053898Y-131512380D02*
X112178898Y-130512380D01*
X113149136Y-131512380D02*
X112672946Y-131512380D01*
X112797946Y-130512380D01*
X113482470Y-131512380D02*
X113607470Y-130512380D01*
X113851517Y-131226666D01*
X114274136Y-130512380D01*
X114149136Y-131512380D01*
X114672946Y-131131428D02*
X115434851Y-131131428D01*
X116387232Y-131512380D02*
X115815803Y-131512380D01*
X116101517Y-131512380D02*
X116226517Y-130512380D01*
X116113422Y-130655238D01*
X116006279Y-130750476D01*
X115905089Y-130798095D01*
X117030089Y-130940952D02*
X116940803Y-130893333D01*
X116899136Y-130845714D01*
X116863422Y-130750476D01*
X116869375Y-130702857D01*
X116928898Y-130607619D01*
X116982470Y-130560000D01*
X117083660Y-130512380D01*
X117274136Y-130512380D01*
X117363422Y-130560000D01*
X117405089Y-130607619D01*
X117440803Y-130702857D01*
X117434851Y-130750476D01*
X117375327Y-130845714D01*
X117321755Y-130893333D01*
X117220565Y-130940952D01*
X117030089Y-130940952D01*
X116928898Y-130988571D01*
X116875327Y-131036190D01*
X116815803Y-131131428D01*
X116791994Y-131321904D01*
X116827708Y-131417142D01*
X116869375Y-131464761D01*
X116958660Y-131512380D01*
X117149136Y-131512380D01*
X117250327Y-131464761D01*
X117303898Y-131417142D01*
X117363422Y-131321904D01*
X117387232Y-131131428D01*
X117351517Y-131036190D01*
X117309851Y-130988571D01*
X117220565Y-130940952D01*
X119101517Y-131512380D02*
X118827708Y-131036190D01*
X118530089Y-131512380D02*
X118655089Y-130512380D01*
X119036041Y-130512380D01*
X119125327Y-130560000D01*
X119166994Y-130607619D01*
X119202708Y-130702857D01*
X119184851Y-130845714D01*
X119125327Y-130940952D01*
X119071755Y-130988571D01*
X118970565Y-131036190D01*
X118589613Y-131036190D01*
X119958660Y-131512380D02*
X120024136Y-130988571D01*
X119988422Y-130893333D01*
X119899136Y-130845714D01*
X119708660Y-130845714D01*
X119607470Y-130893333D01*
X119964613Y-131464761D02*
X119863422Y-131512380D01*
X119625327Y-131512380D01*
X119536041Y-131464761D01*
X119500327Y-131369523D01*
X119512232Y-131274285D01*
X119571755Y-131179047D01*
X119672946Y-131131428D01*
X119911041Y-131131428D01*
X120012232Y-131083809D01*
X120863422Y-131512380D02*
X120988422Y-130512380D01*
X120869375Y-131464761D02*
X120768184Y-131512380D01*
X120577708Y-131512380D01*
X120488422Y-131464761D01*
X120446755Y-131417142D01*
X120411041Y-131321904D01*
X120446755Y-131036190D01*
X120506279Y-130940952D01*
X120559851Y-130893333D01*
X120661041Y-130845714D01*
X120851517Y-130845714D01*
X120940803Y-130893333D01*
X121339613Y-131512380D02*
X121422946Y-130845714D01*
X121464613Y-130512380D02*
X121411041Y-130560000D01*
X121452708Y-130607619D01*
X121506279Y-130560000D01*
X121464613Y-130512380D01*
X121452708Y-130607619D01*
X121958660Y-131512380D02*
X121869375Y-131464761D01*
X121827708Y-131417142D01*
X121791994Y-131321904D01*
X121827708Y-131036190D01*
X121887232Y-130940952D01*
X121940803Y-130893333D01*
X122041994Y-130845714D01*
X122184851Y-130845714D01*
X122274136Y-130893333D01*
X122315803Y-130940952D01*
X122351517Y-131036190D01*
X122315803Y-131321904D01*
X122256279Y-131417142D01*
X122202708Y-131464761D01*
X122101517Y-131512380D01*
X121958660Y-131512380D01*
X123464613Y-130512380D02*
X124036041Y-130512380D01*
X123625327Y-131512380D02*
X123750327Y-130512380D01*
X124631279Y-131464761D02*
X124530089Y-131512380D01*
X124339613Y-131512380D01*
X124250327Y-131464761D01*
X124214613Y-131369523D01*
X124262232Y-130988571D01*
X124321755Y-130893333D01*
X124422946Y-130845714D01*
X124613422Y-130845714D01*
X124702708Y-130893333D01*
X124738422Y-130988571D01*
X124726517Y-131083809D01*
X124238422Y-131179047D01*
X125244375Y-131512380D02*
X125155089Y-131464761D01*
X125119375Y-131369523D01*
X125226517Y-130512380D01*
X126012232Y-131464761D02*
X125911041Y-131512380D01*
X125720565Y-131512380D01*
X125631279Y-131464761D01*
X125595565Y-131369523D01*
X125643184Y-130988571D01*
X125702708Y-130893333D01*
X125803898Y-130845714D01*
X125994375Y-130845714D01*
X126083660Y-130893333D01*
X126119375Y-130988571D01*
X126107470Y-131083809D01*
X125619375Y-131179047D01*
X126440803Y-131464761D02*
X126530089Y-131512380D01*
X126720565Y-131512380D01*
X126821755Y-131464761D01*
X126881279Y-131369523D01*
X126887232Y-131321904D01*
X126851517Y-131226666D01*
X126762232Y-131179047D01*
X126619375Y-131179047D01*
X126530089Y-131131428D01*
X126494375Y-131036190D01*
X126500327Y-130988571D01*
X126559851Y-130893333D01*
X126661041Y-130845714D01*
X126803898Y-130845714D01*
X126893184Y-130893333D01*
X127726517Y-131464761D02*
X127625327Y-131512380D01*
X127434851Y-131512380D01*
X127345565Y-131464761D01*
X127303898Y-131417142D01*
X127268184Y-131321904D01*
X127303898Y-131036190D01*
X127363422Y-130940952D01*
X127416994Y-130893333D01*
X127518184Y-130845714D01*
X127708660Y-130845714D01*
X127797946Y-130893333D01*
X128291994Y-131512380D02*
X128202708Y-131464761D01*
X128161041Y-131417142D01*
X128125327Y-131321904D01*
X128161041Y-131036190D01*
X128220565Y-130940952D01*
X128274136Y-130893333D01*
X128375327Y-130845714D01*
X128518184Y-130845714D01*
X128607470Y-130893333D01*
X128649136Y-130940952D01*
X128684851Y-131036190D01*
X128649136Y-131321904D01*
X128589613Y-131417142D01*
X128536041Y-131464761D01*
X128434851Y-131512380D01*
X128291994Y-131512380D01*
X129137232Y-130845714D02*
X129012232Y-131845714D01*
X129131279Y-130893333D02*
X129232470Y-130845714D01*
X129422946Y-130845714D01*
X129512232Y-130893333D01*
X129553898Y-130940952D01*
X129589613Y-131036190D01*
X129553898Y-131321904D01*
X129494375Y-131417142D01*
X129440803Y-131464761D01*
X129339613Y-131512380D01*
X129149136Y-131512380D01*
X129059851Y-131464761D01*
X130345565Y-131464761D02*
X130244374Y-131512380D01*
X130053898Y-131512380D01*
X129964613Y-131464761D01*
X129928898Y-131369523D01*
X129976517Y-130988571D01*
X130036041Y-130893333D01*
X130137232Y-130845714D01*
X130327708Y-130845714D01*
X130416994Y-130893333D01*
X130452708Y-130988571D01*
X130440803Y-131083809D01*
X129952708Y-131179047D01*
X117196755Y-133122380D02*
X117321755Y-132122380D01*
X117274136Y-132503333D02*
X117375327Y-132455714D01*
X117565803Y-132455714D01*
X117655089Y-132503333D01*
X117696755Y-132550952D01*
X117732470Y-132646190D01*
X117696755Y-132931904D01*
X117637232Y-133027142D01*
X117583660Y-133074761D01*
X117482470Y-133122380D01*
X117291994Y-133122380D01*
X117202708Y-133074761D01*
X118089613Y-132455714D02*
X118244375Y-133122380D01*
X118565803Y-132455714D02*
X118244375Y-133122380D01*
X118119375Y-133360476D01*
X118065803Y-133408095D01*
X117964613Y-133455714D01*
X119613422Y-132836666D02*
X120089613Y-132836666D01*
X119482470Y-133122380D02*
X119940803Y-132122380D01*
X120149136Y-133122380D01*
X120494375Y-133027142D02*
X120536041Y-133074761D01*
X120482470Y-133122380D01*
X120440803Y-133074761D01*
X120494375Y-133027142D01*
X120482470Y-133122380D01*
X121786041Y-132598571D02*
X122119375Y-132598571D01*
X122196755Y-133122380D02*
X121720565Y-133122380D01*
X121845565Y-132122380D01*
X122321755Y-132122380D01*
X122768184Y-133122380D02*
X122678898Y-133074761D01*
X122643184Y-132979523D01*
X122750327Y-132122380D01*
X123577708Y-133122380D02*
X123702708Y-132122380D01*
X123583660Y-133074761D02*
X123482470Y-133122380D01*
X123291994Y-133122380D01*
X123202708Y-133074761D01*
X123161041Y-133027142D01*
X123125327Y-132931904D01*
X123161041Y-132646190D01*
X123220565Y-132550952D01*
X123274136Y-132503333D01*
X123375327Y-132455714D01*
X123565803Y-132455714D01*
X123655089Y-132503333D01*
X124440803Y-133074761D02*
X124339613Y-133122380D01*
X124149136Y-133122380D01*
X124059851Y-133074761D01*
X124024136Y-132979523D01*
X124071755Y-132598571D01*
X124131279Y-132503333D01*
X124232470Y-132455714D01*
X124422946Y-132455714D01*
X124512232Y-132503333D01*
X124547946Y-132598571D01*
X124536041Y-132693809D01*
X124047946Y-132789047D01*
X124911041Y-133122380D02*
X124994375Y-132455714D01*
X124970565Y-132646190D02*
X125030089Y-132550952D01*
X125083660Y-132503333D01*
X125184851Y-132455714D01*
X125280089Y-132455714D01*
D10*
X124214285Y-74178571D02*
X125071428Y-74178571D01*
X124642857Y-75678571D02*
X124642857Y-74178571D01*
X126285714Y-75678571D02*
X125571428Y-75678571D01*
X125571428Y-74178571D01*
X126785714Y-75678571D02*
X126785714Y-74178571D01*
X127285714Y-75250000D01*
X127785714Y-74178571D01*
X127785714Y-75678571D01*
X128500000Y-75107142D02*
X129642857Y-75107142D01*
X131142857Y-75678571D02*
X130285714Y-75678571D01*
X130714285Y-75678571D02*
X130714285Y-74178571D01*
X130571428Y-74392857D01*
X130428571Y-74535714D01*
X130285714Y-74607142D01*
X132000000Y-74821428D02*
X131857142Y-74750000D01*
X131785714Y-74678571D01*
X131714285Y-74535714D01*
X131714285Y-74464285D01*
X131785714Y-74321428D01*
X131857142Y-74250000D01*
X132000000Y-74178571D01*
X132285714Y-74178571D01*
X132428571Y-74250000D01*
X132500000Y-74321428D01*
X132571428Y-74464285D01*
X132571428Y-74535714D01*
X132500000Y-74678571D01*
X132428571Y-74750000D01*
X132285714Y-74821428D01*
X132000000Y-74821428D01*
X131857142Y-74892857D01*
X131785714Y-74964285D01*
X131714285Y-75107142D01*
X131714285Y-75392857D01*
X131785714Y-75535714D01*
X131857142Y-75607142D01*
X132000000Y-75678571D01*
X132285714Y-75678571D01*
X132428571Y-75607142D01*
X132500000Y-75535714D01*
X132571428Y-75392857D01*
X132571428Y-75107142D01*
X132500000Y-74964285D01*
X132428571Y-74892857D01*
X132285714Y-74821428D01*
X134214285Y-74178571D02*
X134571428Y-75678571D01*
X134857142Y-74607142D01*
X135142857Y-75678571D01*
X135500000Y-74178571D01*
X136928571Y-75678571D02*
X136428571Y-74964285D01*
X136071428Y-75678571D02*
X136071428Y-74178571D01*
X136642857Y-74178571D01*
X136785714Y-74250000D01*
X136857142Y-74321428D01*
X136928571Y-74464285D01*
X136928571Y-74678571D01*
X136857142Y-74821428D01*
X136785714Y-74892857D01*
X136642857Y-74964285D01*
X136071428Y-74964285D01*
X137500000Y-75250000D02*
X138214285Y-75250000D01*
X137357142Y-75678571D02*
X137857142Y-74178571D01*
X138357142Y-75678571D01*
X138857142Y-75678571D02*
X138857142Y-74178571D01*
X139428571Y-74178571D01*
X139571428Y-74250000D01*
X139642857Y-74321428D01*
X139714285Y-74464285D01*
X139714285Y-74678571D01*
X139642857Y-74821428D01*
X139571428Y-74892857D01*
X139428571Y-74964285D01*
X138857142Y-74964285D01*
X140357142Y-75107142D02*
X141500000Y-75107142D01*
X142214285Y-74178571D02*
X142214285Y-75392857D01*
X142285714Y-75535714D01*
X142357142Y-75607142D01*
X142500000Y-75678571D01*
X142785714Y-75678571D01*
X142928571Y-75607142D01*
X143000000Y-75535714D01*
X143071428Y-75392857D01*
X143071428Y-74178571D01*
X143785714Y-75678571D02*
X143785714Y-74178571D01*
X144357142Y-74178571D01*
X144500000Y-74250000D01*
X144571428Y-74321428D01*
X144642857Y-74464285D01*
X144642857Y-74678571D01*
X144571428Y-74821428D01*
X144500000Y-74892857D01*
X144357142Y-74964285D01*
X143785714Y-74964285D01*
X146357142Y-75607142D02*
X146571428Y-75678571D01*
X146928571Y-75678571D01*
X147071428Y-75607142D01*
X147142857Y-75535714D01*
X147214285Y-75392857D01*
X147214285Y-75250000D01*
X147142857Y-75107142D01*
X147071428Y-75035714D01*
X146928571Y-74964285D01*
X146642857Y-74892857D01*
X146500000Y-74821428D01*
X146428571Y-74750000D01*
X146357142Y-74607142D01*
X146357142Y-74464285D01*
X146428571Y-74321428D01*
X146500000Y-74250000D01*
X146642857Y-74178571D01*
X147000000Y-74178571D01*
X147214285Y-74250000D01*
X147857142Y-74178571D02*
X147857142Y-75392857D01*
X147928571Y-75535714D01*
X148000000Y-75607142D01*
X148142857Y-75678571D01*
X148428571Y-75678571D01*
X148571428Y-75607142D01*
X148642857Y-75535714D01*
X148714285Y-75392857D01*
X148714285Y-74178571D01*
X149428571Y-75678571D02*
X149428571Y-74178571D01*
X150000000Y-74178571D01*
X150142857Y-74250000D01*
X150214285Y-74321428D01*
X150285714Y-74464285D01*
X150285714Y-74678571D01*
X150214285Y-74821428D01*
X150142857Y-74892857D01*
X150000000Y-74964285D01*
X149428571Y-74964285D01*
X150928571Y-74892857D02*
X151428571Y-74892857D01*
X151642857Y-75678571D02*
X150928571Y-75678571D01*
X150928571Y-74178571D01*
X151642857Y-74178571D01*
X153142857Y-75678571D02*
X152642857Y-74964285D01*
X152285714Y-75678571D02*
X152285714Y-74178571D01*
X152857142Y-74178571D01*
X153000000Y-74250000D01*
X153071428Y-74321428D01*
X153142857Y-74464285D01*
X153142857Y-74678571D01*
X153071428Y-74821428D01*
X153000000Y-74892857D01*
X152857142Y-74964285D01*
X152285714Y-74964285D01*
X153571428Y-74178571D02*
X154071428Y-75678571D01*
X154571428Y-74178571D01*
X155071428Y-75678571D02*
X155071428Y-74178571D01*
X155714285Y-75607142D02*
X155928571Y-75678571D01*
X156285714Y-75678571D01*
X156428571Y-75607142D01*
X156500000Y-75535714D01*
X156571428Y-75392857D01*
X156571428Y-75250000D01*
X156500000Y-75107142D01*
X156428571Y-75035714D01*
X156285714Y-74964285D01*
X156000000Y-74892857D01*
X155857142Y-74821428D01*
X155785714Y-74750000D01*
X155714285Y-74607142D01*
X155714285Y-74464285D01*
X155785714Y-74321428D01*
X155857142Y-74250000D01*
X156000000Y-74178571D01*
X156357142Y-74178571D01*
X156571428Y-74250000D01*
X157500000Y-74178571D02*
X157785714Y-74178571D01*
X157928571Y-74250000D01*
X158071428Y-74392857D01*
X158142857Y-74678571D01*
X158142857Y-75178571D01*
X158071428Y-75464285D01*
X157928571Y-75607142D01*
X157785714Y-75678571D01*
X157500000Y-75678571D01*
X157357142Y-75607142D01*
X157214285Y-75464285D01*
X157142857Y-75178571D01*
X157142857Y-74678571D01*
X157214285Y-74392857D01*
X157357142Y-74250000D01*
X157500000Y-74178571D01*
X159642857Y-75678571D02*
X159142857Y-74964285D01*
X158785714Y-75678571D02*
X158785714Y-74178571D01*
X159357142Y-74178571D01*
X159500000Y-74250000D01*
X159571428Y-74321428D01*
X159642857Y-74464285D01*
X159642857Y-74678571D01*
X159571428Y-74821428D01*
X159500000Y-74892857D01*
X159357142Y-74964285D01*
X158785714Y-74964285D01*
X88181428Y-74651071D02*
X87681428Y-73936785D01*
X87324285Y-74651071D02*
X87324285Y-73151071D01*
X87895714Y-73151071D01*
X88038571Y-73222500D01*
X88110000Y-73293928D01*
X88181428Y-73436785D01*
X88181428Y-73651071D01*
X88110000Y-73793928D01*
X88038571Y-73865357D01*
X87895714Y-73936785D01*
X87324285Y-73936785D01*
X88824285Y-73865357D02*
X89324285Y-73865357D01*
X89538571Y-74651071D02*
X88824285Y-74651071D01*
X88824285Y-73151071D01*
X89538571Y-73151071D01*
X90181428Y-74651071D02*
X90181428Y-73151071D01*
X90752857Y-73151071D01*
X90895714Y-73222500D01*
X90967142Y-73293928D01*
X91038571Y-73436785D01*
X91038571Y-73651071D01*
X90967142Y-73793928D01*
X90895714Y-73865357D01*
X90752857Y-73936785D01*
X90181428Y-73936785D01*
X92395714Y-74651071D02*
X91681428Y-74651071D01*
X91681428Y-73151071D01*
X92824285Y-74222500D02*
X93538571Y-74222500D01*
X92681428Y-74651071D02*
X93181428Y-73151071D01*
X93681428Y-74651071D01*
X95038571Y-74508214D02*
X94967142Y-74579642D01*
X94752857Y-74651071D01*
X94610000Y-74651071D01*
X94395714Y-74579642D01*
X94252857Y-74436785D01*
X94181428Y-74293928D01*
X94110000Y-74008214D01*
X94110000Y-73793928D01*
X94181428Y-73508214D01*
X94252857Y-73365357D01*
X94395714Y-73222500D01*
X94610000Y-73151071D01*
X94752857Y-73151071D01*
X94967142Y-73222500D01*
X95038571Y-73293928D01*
X95681428Y-73865357D02*
X96181428Y-73865357D01*
X96395714Y-74651071D02*
X95681428Y-74651071D01*
X95681428Y-73151071D01*
X96395714Y-73151071D01*
X98467142Y-73151071D02*
X98752857Y-73151071D01*
X98895714Y-73222500D01*
X99038571Y-73365357D01*
X99110000Y-73651071D01*
X99110000Y-74151071D01*
X99038571Y-74436785D01*
X98895714Y-74579642D01*
X98752857Y-74651071D01*
X98467142Y-74651071D01*
X98324285Y-74579642D01*
X98181428Y-74436785D01*
X98110000Y-74151071D01*
X98110000Y-73651071D01*
X98181428Y-73365357D01*
X98324285Y-73222500D01*
X98467142Y-73151071D01*
X99752857Y-74651071D02*
X99752857Y-73151071D01*
X100610000Y-74651071D01*
X100610000Y-73151071D01*
X102038571Y-74651071D02*
X101324285Y-74651071D01*
X101324285Y-73151071D01*
X102824285Y-73936785D02*
X102824285Y-74651071D01*
X102324285Y-73151071D02*
X102824285Y-73936785D01*
X103324285Y-73151071D01*
X104824285Y-73151071D02*
X105181428Y-74651071D01*
X105467142Y-73579642D01*
X105752857Y-74651071D01*
X106110000Y-73151071D01*
X106681428Y-74651071D02*
X106681428Y-73151071D01*
X107181428Y-73151071D02*
X108038571Y-73151071D01*
X107610000Y-74651071D02*
X107610000Y-73151071D01*
X108538571Y-74651071D02*
X108538571Y-73151071D01*
X108538571Y-73865357D02*
X109395714Y-73865357D01*
X109395714Y-74651071D02*
X109395714Y-73151071D01*
X94681428Y-75566071D02*
X93967142Y-75566071D01*
X93895714Y-76280357D01*
X93967142Y-76208928D01*
X94110000Y-76137500D01*
X94467142Y-76137500D01*
X94610000Y-76208928D01*
X94681428Y-76280357D01*
X94752857Y-76423214D01*
X94752857Y-76780357D01*
X94681428Y-76923214D01*
X94610000Y-76994642D01*
X94467142Y-77066071D01*
X94110000Y-77066071D01*
X93967142Y-76994642D01*
X93895714Y-76923214D01*
X95324285Y-76637500D02*
X96038571Y-76637500D01*
X95181428Y-77066071D02*
X95681428Y-75566071D01*
X96181428Y-77066071D01*
X98324285Y-76280357D02*
X97824285Y-76280357D01*
X97824285Y-77066071D02*
X97824285Y-75566071D01*
X98538571Y-75566071D01*
X99110000Y-75566071D02*
X99110000Y-76780357D01*
X99181428Y-76923214D01*
X99252857Y-76994642D01*
X99395714Y-77066071D01*
X99681428Y-77066071D01*
X99824285Y-76994642D01*
X99895714Y-76923214D01*
X99967142Y-76780357D01*
X99967142Y-75566071D01*
X100610000Y-76994642D02*
X100824285Y-77066071D01*
X101181428Y-77066071D01*
X101324285Y-76994642D01*
X101395714Y-76923214D01*
X101467142Y-76780357D01*
X101467142Y-76637500D01*
X101395714Y-76494642D01*
X101324285Y-76423214D01*
X101181428Y-76351785D01*
X100895714Y-76280357D01*
X100752857Y-76208928D01*
X100681428Y-76137500D01*
X100610000Y-75994642D01*
X100610000Y-75851785D01*
X100681428Y-75708928D01*
X100752857Y-75637500D01*
X100895714Y-75566071D01*
X101252857Y-75566071D01*
X101467142Y-75637500D01*
X102110000Y-76280357D02*
X102610000Y-76280357D01*
X102824285Y-77066071D02*
X102110000Y-77066071D01*
X102110000Y-75566071D01*
X102824285Y-75566071D01*
D11*
%TO.C,C3*%
X100083333Y-121157142D02*
X100035714Y-121204761D01*
X99892857Y-121252380D01*
X99797619Y-121252380D01*
X99654761Y-121204761D01*
X99559523Y-121109523D01*
X99511904Y-121014285D01*
X99464285Y-120823809D01*
X99464285Y-120680952D01*
X99511904Y-120490476D01*
X99559523Y-120395238D01*
X99654761Y-120300000D01*
X99797619Y-120252380D01*
X99892857Y-120252380D01*
X100035714Y-120300000D01*
X100083333Y-120347619D01*
X100416666Y-120252380D02*
X101035714Y-120252380D01*
X100702380Y-120633333D01*
X100845238Y-120633333D01*
X100940476Y-120680952D01*
X100988095Y-120728571D01*
X101035714Y-120823809D01*
X101035714Y-121061904D01*
X100988095Y-121157142D01*
X100940476Y-121204761D01*
X100845238Y-121252380D01*
X100559523Y-121252380D01*
X100464285Y-121204761D01*
X100416666Y-121157142D01*
%TO.C,U2*%
X104728095Y-116887380D02*
X104728095Y-117696904D01*
X104775714Y-117792142D01*
X104823333Y-117839761D01*
X104918571Y-117887380D01*
X105109047Y-117887380D01*
X105204285Y-117839761D01*
X105251904Y-117792142D01*
X105299523Y-117696904D01*
X105299523Y-116887380D01*
X105728095Y-116982619D02*
X105775714Y-116935000D01*
X105870952Y-116887380D01*
X106109047Y-116887380D01*
X106204285Y-116935000D01*
X106251904Y-116982619D01*
X106299523Y-117077857D01*
X106299523Y-117173095D01*
X106251904Y-117315952D01*
X105680476Y-117887380D01*
X106299523Y-117887380D01*
X105452380Y-109571428D02*
X105452380Y-110047619D01*
X104452380Y-110047619D01*
X105404761Y-109285714D02*
X105452380Y-109142857D01*
X105452380Y-108904761D01*
X105404761Y-108809523D01*
X105357142Y-108761904D01*
X105261904Y-108714285D01*
X105166666Y-108714285D01*
X105071428Y-108761904D01*
X105023809Y-108809523D01*
X104976190Y-108904761D01*
X104928571Y-109095238D01*
X104880952Y-109190476D01*
X104833333Y-109238095D01*
X104738095Y-109285714D01*
X104642857Y-109285714D01*
X104547619Y-109238095D01*
X104500000Y-109190476D01*
X104452380Y-109095238D01*
X104452380Y-108857142D01*
X104500000Y-108714285D01*
X104452380Y-108380952D02*
X104452380Y-107714285D01*
X105452380Y-108142857D01*
X104452380Y-107428571D02*
X104452380Y-106809523D01*
X104833333Y-107142857D01*
X104833333Y-107000000D01*
X104880952Y-106904761D01*
X104928571Y-106857142D01*
X105023809Y-106809523D01*
X105261904Y-106809523D01*
X105357142Y-106857142D01*
X105404761Y-106904761D01*
X105452380Y-107000000D01*
X105452380Y-107285714D01*
X105404761Y-107380952D01*
X105357142Y-107428571D01*
X104452380Y-105952380D02*
X104452380Y-106142857D01*
X104500000Y-106238095D01*
X104547619Y-106285714D01*
X104690476Y-106380952D01*
X104880952Y-106428571D01*
X105261904Y-106428571D01*
X105357142Y-106380952D01*
X105404761Y-106333333D01*
X105452380Y-106238095D01*
X105452380Y-106047619D01*
X105404761Y-105952380D01*
X105357142Y-105904761D01*
X105261904Y-105857142D01*
X105023809Y-105857142D01*
X104928571Y-105904761D01*
X104880952Y-105952380D01*
X104833333Y-106047619D01*
X104833333Y-106238095D01*
X104880952Y-106333333D01*
X104928571Y-106380952D01*
X105023809Y-106428571D01*
X104452380Y-105000000D02*
X104452380Y-105190476D01*
X104500000Y-105285714D01*
X104547619Y-105333333D01*
X104690476Y-105428571D01*
X104880952Y-105476190D01*
X105261904Y-105476190D01*
X105357142Y-105428571D01*
X105404761Y-105380952D01*
X105452380Y-105285714D01*
X105452380Y-105095238D01*
X105404761Y-105000000D01*
X105357142Y-104952380D01*
X105261904Y-104904761D01*
X105023809Y-104904761D01*
X104928571Y-104952380D01*
X104880952Y-105000000D01*
X104833333Y-105095238D01*
X104833333Y-105285714D01*
X104880952Y-105380952D01*
X104928571Y-105428571D01*
X105023809Y-105476190D01*
X105452380Y-103904761D02*
X104976190Y-104238095D01*
X105452380Y-104476190D02*
X104452380Y-104476190D01*
X104452380Y-104095238D01*
X104500000Y-104000000D01*
X104547619Y-103952380D01*
X104642857Y-103904761D01*
X104785714Y-103904761D01*
X104880952Y-103952380D01*
X104928571Y-104000000D01*
X104976190Y-104095238D01*
X104976190Y-104476190D01*
%TO.C,C4*%
X149857142Y-86166666D02*
X149904761Y-86214285D01*
X149952380Y-86357142D01*
X149952380Y-86452380D01*
X149904761Y-86595238D01*
X149809523Y-86690476D01*
X149714285Y-86738095D01*
X149523809Y-86785714D01*
X149380952Y-86785714D01*
X149190476Y-86738095D01*
X149095238Y-86690476D01*
X149000000Y-86595238D01*
X148952380Y-86452380D01*
X148952380Y-86357142D01*
X149000000Y-86214285D01*
X149047619Y-86166666D01*
X149285714Y-85309523D02*
X149952380Y-85309523D01*
X148904761Y-85547619D02*
X149619047Y-85785714D01*
X149619047Y-85166666D01*
%TO.C,U1*%
X125938095Y-79282380D02*
X125938095Y-80091904D01*
X125985714Y-80187142D01*
X126033333Y-80234761D01*
X126128571Y-80282380D01*
X126319047Y-80282380D01*
X126414285Y-80234761D01*
X126461904Y-80187142D01*
X126509523Y-80091904D01*
X126509523Y-79282380D01*
X127509523Y-80282380D02*
X126938095Y-80282380D01*
X127223809Y-80282380D02*
X127223809Y-79282380D01*
X127128571Y-79425238D01*
X127033333Y-79520476D01*
X126938095Y-79568095D01*
%TO.C,C2*%
X109583333Y-126157142D02*
X109535714Y-126204761D01*
X109392857Y-126252380D01*
X109297619Y-126252380D01*
X109154761Y-126204761D01*
X109059523Y-126109523D01*
X109011904Y-126014285D01*
X108964285Y-125823809D01*
X108964285Y-125680952D01*
X109011904Y-125490476D01*
X109059523Y-125395238D01*
X109154761Y-125300000D01*
X109297619Y-125252380D01*
X109392857Y-125252380D01*
X109535714Y-125300000D01*
X109583333Y-125347619D01*
X109964285Y-125347619D02*
X110011904Y-125300000D01*
X110107142Y-125252380D01*
X110345238Y-125252380D01*
X110440476Y-125300000D01*
X110488095Y-125347619D01*
X110535714Y-125442857D01*
X110535714Y-125538095D01*
X110488095Y-125680952D01*
X109916666Y-126252380D01*
X110535714Y-126252380D01*
%TO.C,D1*%
X140881904Y-95232380D02*
X140881904Y-94232380D01*
X141120000Y-94232380D01*
X141262857Y-94280000D01*
X141358095Y-94375238D01*
X141405714Y-94470476D01*
X141453333Y-94660952D01*
X141453333Y-94803809D01*
X141405714Y-94994285D01*
X141358095Y-95089523D01*
X141262857Y-95184761D01*
X141120000Y-95232380D01*
X140881904Y-95232380D01*
X142405714Y-95232380D02*
X141834285Y-95232380D01*
X142120000Y-95232380D02*
X142120000Y-94232380D01*
X142024761Y-94375238D01*
X141929523Y-94470476D01*
X141834285Y-94518095D01*
X133738095Y-96352380D02*
X133738095Y-95352380D01*
X134309523Y-96352380D02*
X133880952Y-95780952D01*
X134309523Y-95352380D02*
X133738095Y-95923809D01*
%TO.C,R2*%
X160023333Y-106822380D02*
X159690000Y-106346190D01*
X159451904Y-106822380D02*
X159451904Y-105822380D01*
X159832857Y-105822380D01*
X159928095Y-105870000D01*
X159975714Y-105917619D01*
X160023333Y-106012857D01*
X160023333Y-106155714D01*
X159975714Y-106250952D01*
X159928095Y-106298571D01*
X159832857Y-106346190D01*
X159451904Y-106346190D01*
X160404285Y-105917619D02*
X160451904Y-105870000D01*
X160547142Y-105822380D01*
X160785238Y-105822380D01*
X160880476Y-105870000D01*
X160928095Y-105917619D01*
X160975714Y-106012857D01*
X160975714Y-106108095D01*
X160928095Y-106250952D01*
X160356666Y-106822380D01*
X160975714Y-106822380D01*
%TO.C,R3*%
X156822380Y-82976666D02*
X156346190Y-83310000D01*
X156822380Y-83548095D02*
X155822380Y-83548095D01*
X155822380Y-83167142D01*
X155870000Y-83071904D01*
X155917619Y-83024285D01*
X156012857Y-82976666D01*
X156155714Y-82976666D01*
X156250952Y-83024285D01*
X156298571Y-83071904D01*
X156346190Y-83167142D01*
X156346190Y-83548095D01*
X155822380Y-82643333D02*
X155822380Y-82024285D01*
X156203333Y-82357619D01*
X156203333Y-82214761D01*
X156250952Y-82119523D01*
X156298571Y-82071904D01*
X156393809Y-82024285D01*
X156631904Y-82024285D01*
X156727142Y-82071904D01*
X156774761Y-82119523D01*
X156822380Y-82214761D01*
X156822380Y-82500476D01*
X156774761Y-82595714D01*
X156727142Y-82643333D01*
%TO.C,A1*%
X137036666Y-122704285D02*
X137036666Y-122228095D01*
X137322380Y-122799523D02*
X136322380Y-122466190D01*
X137322380Y-122132857D01*
X137322380Y-121275714D02*
X137322380Y-121847142D01*
X137322380Y-121561428D02*
X136322380Y-121561428D01*
X136465238Y-121656666D01*
X136560476Y-121751904D01*
X136608095Y-121847142D01*
%TO.C,J2*%
X95762380Y-112873333D02*
X96476666Y-112873333D01*
X96619523Y-112920952D01*
X96714761Y-113016190D01*
X96762380Y-113159047D01*
X96762380Y-113254285D01*
X95857619Y-112444761D02*
X95810000Y-112397142D01*
X95762380Y-112301904D01*
X95762380Y-112063809D01*
X95810000Y-111968571D01*
X95857619Y-111920952D01*
X95952857Y-111873333D01*
X96048095Y-111873333D01*
X96190952Y-111920952D01*
X96762380Y-112492380D01*
X96762380Y-111873333D01*
%TO.C,F1*%
X102598571Y-86293333D02*
X102598571Y-86626666D01*
X103122380Y-86626666D02*
X102122380Y-86626666D01*
X102122380Y-86150476D01*
X103122380Y-85245714D02*
X103122380Y-85817142D01*
X103122380Y-85531428D02*
X102122380Y-85531428D01*
X102265238Y-85626666D01*
X102360476Y-85721904D01*
X102408095Y-85817142D01*
%TO.C,C1*%
X104857142Y-86166666D02*
X104904761Y-86214285D01*
X104952380Y-86357142D01*
X104952380Y-86452380D01*
X104904761Y-86595238D01*
X104809523Y-86690476D01*
X104714285Y-86738095D01*
X104523809Y-86785714D01*
X104380952Y-86785714D01*
X104190476Y-86738095D01*
X104095238Y-86690476D01*
X104000000Y-86595238D01*
X103952380Y-86452380D01*
X103952380Y-86357142D01*
X104000000Y-86214285D01*
X104047619Y-86166666D01*
X104952380Y-85214285D02*
X104952380Y-85785714D01*
X104952380Y-85500000D02*
X103952380Y-85500000D01*
X104095238Y-85595238D01*
X104190476Y-85690476D01*
X104238095Y-85785714D01*
%TO.C,U3*%
X158813095Y-88107380D02*
X158813095Y-88916904D01*
X158860714Y-89012142D01*
X158908333Y-89059761D01*
X159003571Y-89107380D01*
X159194047Y-89107380D01*
X159289285Y-89059761D01*
X159336904Y-89012142D01*
X159384523Y-88916904D01*
X159384523Y-88107380D01*
X159765476Y-88107380D02*
X160384523Y-88107380D01*
X160051190Y-88488333D01*
X160194047Y-88488333D01*
X160289285Y-88535952D01*
X160336904Y-88583571D01*
X160384523Y-88678809D01*
X160384523Y-88916904D01*
X160336904Y-89012142D01*
X160289285Y-89059761D01*
X160194047Y-89107380D01*
X159908333Y-89107380D01*
X159813095Y-89059761D01*
X159765476Y-89012142D01*
%TO.C,R1*%
X104833333Y-123122380D02*
X104500000Y-122646190D01*
X104261904Y-123122380D02*
X104261904Y-122122380D01*
X104642857Y-122122380D01*
X104738095Y-122170000D01*
X104785714Y-122217619D01*
X104833333Y-122312857D01*
X104833333Y-122455714D01*
X104785714Y-122550952D01*
X104738095Y-122598571D01*
X104642857Y-122646190D01*
X104261904Y-122646190D01*
X105785714Y-123122380D02*
X105214285Y-123122380D01*
X105500000Y-123122380D02*
X105500000Y-122122380D01*
X105404761Y-122265238D01*
X105309523Y-122360476D01*
X105214285Y-122408095D01*
%TO.C,*%
%TO.C,L1*%
X124333333Y-106202380D02*
X123857142Y-106202380D01*
X123857142Y-105202380D01*
X125190476Y-106202380D02*
X124619047Y-106202380D01*
X124904761Y-106202380D02*
X124904761Y-105202380D01*
X124809523Y-105345238D01*
X124714285Y-105440476D01*
X124619047Y-105488095D01*
%TO.C,J3*%
X166562380Y-94873333D02*
X167276666Y-94873333D01*
X167419523Y-94920952D01*
X167514761Y-95016190D01*
X167562380Y-95159047D01*
X167562380Y-95254285D01*
X166562380Y-94492380D02*
X166562380Y-93873333D01*
X166943333Y-94206666D01*
X166943333Y-94063809D01*
X166990952Y-93968571D01*
X167038571Y-93920952D01*
X167133809Y-93873333D01*
X167371904Y-93873333D01*
X167467142Y-93920952D01*
X167514761Y-93968571D01*
X167562380Y-94063809D01*
X167562380Y-94349523D01*
X167514761Y-94444761D01*
X167467142Y-94492380D01*
%TO.C,J1*%
X85666666Y-89662380D02*
X85666666Y-90376666D01*
X85619047Y-90519523D01*
X85523809Y-90614761D01*
X85380952Y-90662380D01*
X85285714Y-90662380D01*
X86666666Y-90662380D02*
X86095238Y-90662380D01*
X86380952Y-90662380D02*
X86380952Y-89662380D01*
X86285714Y-89805238D01*
X86190476Y-89900476D01*
X86095238Y-89948095D01*
%TO.C,D2*%
X161531904Y-79492380D02*
X161531904Y-78492380D01*
X161770000Y-78492380D01*
X161912857Y-78540000D01*
X162008095Y-78635238D01*
X162055714Y-78730476D01*
X162103333Y-78920952D01*
X162103333Y-79063809D01*
X162055714Y-79254285D01*
X162008095Y-79349523D01*
X161912857Y-79444761D01*
X161770000Y-79492380D01*
X161531904Y-79492380D01*
X162484285Y-78587619D02*
X162531904Y-78540000D01*
X162627142Y-78492380D01*
X162865238Y-78492380D01*
X162960476Y-78540000D01*
X163008095Y-78587619D01*
X163055714Y-78682857D01*
X163055714Y-78778095D01*
X163008095Y-78920952D01*
X162436666Y-79492380D01*
X163055714Y-79492380D01*
%TO.C,*%
D12*
%TO.C,C3*%
X98130000Y-123965000D02*
X98130000Y-124670000D01*
X98130000Y-121930000D02*
X102370000Y-121930000D01*
X102370000Y-121930000D02*
X102370000Y-122635000D01*
X102370000Y-123965000D02*
X102370000Y-124670000D01*
X98130000Y-124670000D02*
X102370000Y-124670000D01*
X98130000Y-121930000D02*
X98130000Y-122635000D01*
D13*
%TO.C,U2*%
X108300000Y-97412500D02*
X101700000Y-97412500D01*
X108300000Y-116587500D02*
X101700000Y-116587500D01*
D14*
X110265000Y-114620000D02*
G75*
G03*
X110265000Y-114620000I-100000J0D01*
G01*
D12*
%TO.C,C4*%
X148370000Y-86000000D02*
G75*
G03*
X148370000Y-86000000I-6370000J0D01*
G01*
%TO.C,U1*%
X128550000Y-80830000D02*
X128550000Y-82339000D01*
X121579000Y-80830000D02*
X131820000Y-80830000D01*
X126700000Y-85471000D02*
X126700000Y-88085000D01*
X129465000Y-85471000D02*
X131820000Y-85471000D01*
X130100000Y-85471000D02*
X130100000Y-88085000D01*
X121579000Y-80830000D02*
X121579000Y-85471000D01*
X123300000Y-85471000D02*
X123300000Y-88101000D01*
X121579000Y-82339000D02*
X131820000Y-82339000D01*
X121579000Y-85471000D02*
X123935000Y-85471000D01*
X126065000Y-85471000D02*
X127335000Y-85471000D01*
X124850000Y-80830000D02*
X124850000Y-82339000D01*
X131820000Y-80830000D02*
X131820000Y-85471000D01*
%TO.C,Y1*%
X105350000Y-125100000D02*
X105950000Y-124200000D01*
X104650000Y-125100000D02*
X104050000Y-124200000D01*
X105950000Y-124200000D02*
X105950000Y-124000000D01*
X104050000Y-124200000D02*
X104050000Y-124000000D01*
X106200000Y-125100000D02*
X103800000Y-125100000D01*
X103800000Y-131500000D02*
X106200000Y-131500000D01*
X103800000Y-125100000D02*
X103800000Y-131500000D01*
X106200000Y-131500000D02*
X106200000Y-125100000D01*
%TO.C,C2*%
X111870000Y-121930000D02*
X107630000Y-121930000D01*
X107630000Y-124670000D02*
X107630000Y-123965000D01*
X111870000Y-124670000D02*
X111870000Y-123965000D01*
X111870000Y-124670000D02*
X107630000Y-124670000D01*
X111870000Y-122635000D02*
X111870000Y-121930000D01*
X107630000Y-122635000D02*
X107630000Y-121930000D01*
%TO.C,D1*%
X138295000Y-95780000D02*
X138295000Y-101220000D01*
X146490000Y-101220000D02*
X146490000Y-95780000D01*
X147400000Y-98500000D02*
X146490000Y-98500000D01*
X135840000Y-98500000D02*
X136750000Y-98500000D01*
X138175000Y-95780000D02*
X138175000Y-101220000D01*
X146490000Y-95780000D02*
X136750000Y-95780000D01*
X138415000Y-95780000D02*
X138415000Y-101220000D01*
X136750000Y-101220000D02*
X146490000Y-101220000D01*
X136750000Y-95780000D02*
X136750000Y-101220000D01*
%TO.C,G\u002A\u002A\u002A*%
G36*
X119473029Y-120618512D02*
G01*
X119626553Y-120618611D01*
X119766111Y-120618761D01*
X119890577Y-120618959D01*
X119998825Y-120619206D01*
X120089728Y-120619499D01*
X120162160Y-120619839D01*
X120214994Y-120620224D01*
X120247104Y-120620653D01*
X120257351Y-120621076D01*
X120259031Y-120632783D01*
X120257190Y-120665468D01*
X120251798Y-120719379D01*
X120242825Y-120794766D01*
X120230241Y-120891878D01*
X120214016Y-121010963D01*
X120194120Y-121152271D01*
X120186287Y-121206997D01*
X120170139Y-121319405D01*
X120155006Y-121424763D01*
X120141192Y-121520943D01*
X120129003Y-121605817D01*
X120118744Y-121677259D01*
X120110721Y-121733139D01*
X120105240Y-121771331D01*
X120102606Y-121789708D01*
X120102414Y-121791058D01*
X120091129Y-121791350D01*
X120058097Y-121791633D01*
X120004432Y-121791907D01*
X119931249Y-121792170D01*
X119839663Y-121792420D01*
X119730789Y-121792657D01*
X119605740Y-121792877D01*
X119465633Y-121793080D01*
X119311582Y-121793265D01*
X119144701Y-121793430D01*
X118966106Y-121793573D01*
X118776911Y-121793694D01*
X118578230Y-121793789D01*
X118371180Y-121793859D01*
X118156874Y-121793902D01*
X117946563Y-121793915D01*
X115791092Y-121793915D01*
X115798344Y-121745333D01*
X115801408Y-121724313D01*
X115807346Y-121683132D01*
X115815803Y-121624261D01*
X115826426Y-121550173D01*
X115838859Y-121463338D01*
X115852749Y-121366230D01*
X115867742Y-121261319D01*
X115882282Y-121159487D01*
X115958970Y-120622223D01*
X118101947Y-120619291D01*
X118321690Y-120619015D01*
X118535352Y-120618795D01*
X118741807Y-120618631D01*
X118939929Y-120618522D01*
X119128591Y-120618466D01*
X119306666Y-120618463D01*
X119473029Y-120618512D01*
G37*
G36*
X123486898Y-120616535D02*
G01*
X123734733Y-120616619D01*
X123961346Y-120616766D01*
X124167556Y-120616982D01*
X124354184Y-120617272D01*
X124522050Y-120617640D01*
X124671973Y-120618094D01*
X124804773Y-120618637D01*
X124921271Y-120619276D01*
X125022286Y-120620016D01*
X125108638Y-120620863D01*
X125181148Y-120621821D01*
X125240634Y-120622896D01*
X125287918Y-120624095D01*
X125323819Y-120625421D01*
X125349156Y-120626881D01*
X125364751Y-120628480D01*
X125371422Y-120630224D01*
X125371807Y-120630797D01*
X125370270Y-120643885D01*
X125365802Y-120678023D01*
X125358624Y-120731616D01*
X125348956Y-120803072D01*
X125337019Y-120890795D01*
X125323032Y-120993192D01*
X125307217Y-121108667D01*
X125289793Y-121235629D01*
X125270982Y-121372481D01*
X125251004Y-121517630D01*
X125230078Y-121669482D01*
X125208426Y-121826443D01*
X125186268Y-121986919D01*
X125163825Y-122149315D01*
X125141316Y-122312038D01*
X125118963Y-122473493D01*
X125096985Y-122632086D01*
X125075604Y-122786223D01*
X125055039Y-122934310D01*
X125035511Y-123074753D01*
X125017241Y-123205958D01*
X125000449Y-123326330D01*
X124985356Y-123434276D01*
X124972181Y-123528201D01*
X124961145Y-123606512D01*
X124952469Y-123667613D01*
X124946374Y-123709912D01*
X124943079Y-123731814D01*
X124942631Y-123734352D01*
X124936972Y-123760072D01*
X123365408Y-123760072D01*
X123161343Y-123760145D01*
X122967249Y-123760360D01*
X122784189Y-123760709D01*
X122613223Y-123761186D01*
X122455415Y-123761784D01*
X122311826Y-123762495D01*
X122183518Y-123763314D01*
X122071554Y-123764233D01*
X121976995Y-123765245D01*
X121900904Y-123766344D01*
X121844343Y-123767522D01*
X121808374Y-123768772D01*
X121794059Y-123770089D01*
X121793843Y-123770275D01*
X121792247Y-123782773D01*
X121787603Y-123816380D01*
X121780128Y-123869576D01*
X121770038Y-123940842D01*
X121757552Y-124028657D01*
X121742885Y-124131503D01*
X121726255Y-124247859D01*
X121707878Y-124376207D01*
X121687972Y-124515027D01*
X121666752Y-124662800D01*
X121644437Y-124818005D01*
X121628092Y-124931568D01*
X121605131Y-125091122D01*
X121583113Y-125244322D01*
X121562254Y-125389650D01*
X121542771Y-125525583D01*
X121524882Y-125650604D01*
X121508802Y-125763192D01*
X121494749Y-125861827D01*
X121482940Y-125944989D01*
X121473592Y-126011159D01*
X121466921Y-126058816D01*
X121463145Y-126086441D01*
X121462340Y-126093057D01*
X121451184Y-126095263D01*
X121418814Y-126097268D01*
X121366878Y-126099043D01*
X121297025Y-126100560D01*
X121210902Y-126101789D01*
X121110157Y-126102700D01*
X120996438Y-126103266D01*
X120873636Y-126103456D01*
X120738598Y-126103360D01*
X120624803Y-126103045D01*
X120530635Y-126102469D01*
X120454475Y-126101592D01*
X120394706Y-126100372D01*
X120349710Y-126098769D01*
X120317870Y-126096742D01*
X120297567Y-126094249D01*
X120287185Y-126091250D01*
X120284932Y-126088545D01*
X120286521Y-126075981D01*
X120291146Y-126042288D01*
X120298591Y-125988963D01*
X120308643Y-125917507D01*
X120321087Y-125829418D01*
X120335709Y-125726198D01*
X120352295Y-125609344D01*
X120370629Y-125480357D01*
X120390498Y-125340736D01*
X120411687Y-125191981D01*
X120433982Y-125035592D01*
X120457169Y-124873067D01*
X120481032Y-124705907D01*
X120505359Y-124535610D01*
X120529933Y-124363677D01*
X120554542Y-124191607D01*
X120578970Y-124020900D01*
X120603003Y-123853055D01*
X120626426Y-123689571D01*
X120649026Y-123531949D01*
X120670588Y-123381687D01*
X120690898Y-123240286D01*
X120709741Y-123109244D01*
X120726902Y-122990062D01*
X120742168Y-122884239D01*
X120755324Y-122793274D01*
X120766155Y-122718668D01*
X120774448Y-122661919D01*
X120779988Y-122624527D01*
X120782490Y-122608384D01*
X120788938Y-122571233D01*
X123907204Y-122571233D01*
X123914283Y-122522651D01*
X123917730Y-122499000D01*
X123923987Y-122456077D01*
X123932565Y-122397231D01*
X123942976Y-122325814D01*
X123954732Y-122245175D01*
X123967343Y-122158665D01*
X123970123Y-122139596D01*
X123982259Y-122054917D01*
X123992919Y-121977745D01*
X124001740Y-121910926D01*
X124008364Y-121857304D01*
X124012428Y-121819724D01*
X124013571Y-121801032D01*
X124013279Y-121799520D01*
X124001385Y-121798847D01*
X123967947Y-121798197D01*
X123914287Y-121797574D01*
X123841722Y-121796985D01*
X123751573Y-121796432D01*
X123645159Y-121795922D01*
X123523799Y-121795459D01*
X123388814Y-121795047D01*
X123241521Y-121794691D01*
X123083241Y-121794397D01*
X122915294Y-121794168D01*
X122738998Y-121794010D01*
X122555673Y-121793927D01*
X122454944Y-121793915D01*
X122235224Y-121793906D01*
X122037237Y-121793869D01*
X121859854Y-121793787D01*
X121701945Y-121793648D01*
X121562381Y-121793435D01*
X121440033Y-121793133D01*
X121333771Y-121792728D01*
X121242465Y-121792204D01*
X121164988Y-121791547D01*
X121100209Y-121790741D01*
X121046999Y-121789771D01*
X121004229Y-121788623D01*
X120970769Y-121787281D01*
X120945490Y-121785730D01*
X120927262Y-121783956D01*
X120914958Y-121781942D01*
X120907446Y-121779676D01*
X120903598Y-121777140D01*
X120902284Y-121774320D01*
X120902214Y-121773263D01*
X120903795Y-121758136D01*
X120908331Y-121722644D01*
X120915509Y-121669049D01*
X120925016Y-121599615D01*
X120936540Y-121516605D01*
X120949769Y-121422280D01*
X120964390Y-121318903D01*
X120980091Y-121208738D01*
X120982232Y-121193780D01*
X120998018Y-121083353D01*
X121012771Y-120979802D01*
X121026180Y-120885330D01*
X121037936Y-120802140D01*
X121047727Y-120732435D01*
X121055244Y-120678419D01*
X121060176Y-120642294D01*
X121062213Y-120626265D01*
X121062250Y-120625729D01*
X121073495Y-120624787D01*
X121106488Y-120623871D01*
X121160114Y-120622987D01*
X121233258Y-120622139D01*
X121324806Y-120621331D01*
X121433642Y-120620569D01*
X121558653Y-120619858D01*
X121698723Y-120619202D01*
X121852738Y-120618605D01*
X122019583Y-120618073D01*
X122198143Y-120617611D01*
X122387304Y-120617223D01*
X122585952Y-120616914D01*
X122792970Y-120616688D01*
X123007245Y-120616551D01*
X123217020Y-120616508D01*
X123486898Y-120616535D01*
G37*
G36*
X118104838Y-122571239D02*
G01*
X118343747Y-122571264D01*
X118561712Y-122571316D01*
X118759691Y-122571406D01*
X118938643Y-122571541D01*
X119099527Y-122571732D01*
X119243300Y-122571987D01*
X119370923Y-122572315D01*
X119483354Y-122572727D01*
X119581552Y-122573230D01*
X119666475Y-122573835D01*
X119739083Y-122574550D01*
X119800334Y-122575385D01*
X119851186Y-122576348D01*
X119892599Y-122577450D01*
X119925532Y-122578698D01*
X119950942Y-122580103D01*
X119969790Y-122581674D01*
X119983034Y-122583419D01*
X119991632Y-122585348D01*
X119996543Y-122587470D01*
X119998726Y-122589794D01*
X119999154Y-122591886D01*
X119997568Y-122607695D01*
X119993065Y-122643269D01*
X119986024Y-122695956D01*
X119976826Y-122763104D01*
X119965850Y-122842064D01*
X119953476Y-122930182D01*
X119940084Y-123024809D01*
X119926055Y-123123293D01*
X119911767Y-123222982D01*
X119897602Y-123321226D01*
X119883939Y-123415374D01*
X119871158Y-123502773D01*
X119859639Y-123580773D01*
X119849761Y-123646723D01*
X119841906Y-123697971D01*
X119836453Y-123731866D01*
X119833787Y-123745743D01*
X119828717Y-123747834D01*
X119814517Y-123749743D01*
X119790237Y-123751481D01*
X119754927Y-123753057D01*
X119707636Y-123754481D01*
X119647415Y-123755765D01*
X119573314Y-123756918D01*
X119484382Y-123757950D01*
X119379671Y-123758873D01*
X119258229Y-123759697D01*
X119119107Y-123760431D01*
X118961354Y-123761087D01*
X118784022Y-123761674D01*
X118586159Y-123762202D01*
X118366816Y-123762683D01*
X118259682Y-123762889D01*
X116690929Y-123765788D01*
X116522476Y-124931764D01*
X116499298Y-125092176D01*
X116477049Y-125246115D01*
X116455948Y-125392084D01*
X116436209Y-125528587D01*
X116418051Y-125654127D01*
X116401688Y-125767207D01*
X116387339Y-125866329D01*
X116375220Y-125949997D01*
X116365546Y-126016715D01*
X116358536Y-126064984D01*
X116354406Y-126093308D01*
X116353321Y-126100599D01*
X116342107Y-126101150D01*
X116310165Y-126101666D01*
X116259632Y-126102137D01*
X116192641Y-126102552D01*
X116111328Y-126102902D01*
X116017828Y-126103175D01*
X115914275Y-126103361D01*
X115802806Y-126103450D01*
X115763397Y-126103456D01*
X115174175Y-126103456D01*
X115180729Y-126066305D01*
X115183075Y-126050904D01*
X115188477Y-126014137D01*
X115196751Y-125957272D01*
X115207716Y-125881574D01*
X115221188Y-125788311D01*
X115236987Y-125678748D01*
X115254930Y-125554153D01*
X115274834Y-125415792D01*
X115296518Y-125264930D01*
X115319798Y-125102836D01*
X115344493Y-124930776D01*
X115370421Y-124750015D01*
X115397398Y-124561821D01*
X115425244Y-124367460D01*
X115432831Y-124314483D01*
X115460829Y-124119116D01*
X115487995Y-123929843D01*
X115514147Y-123747910D01*
X115539106Y-123574559D01*
X115562691Y-123411037D01*
X115584721Y-123258587D01*
X115605016Y-123118455D01*
X115623395Y-122991883D01*
X115639677Y-122880118D01*
X115653683Y-122784403D01*
X115665232Y-122705983D01*
X115674142Y-122646103D01*
X115680234Y-122606007D01*
X115683327Y-122586939D01*
X115683637Y-122585522D01*
X115688402Y-122583731D01*
X115701872Y-122582086D01*
X115724865Y-122580582D01*
X115758202Y-122579213D01*
X115802704Y-122577974D01*
X115859190Y-122576860D01*
X115928480Y-122575865D01*
X116011394Y-122574984D01*
X116108753Y-122574211D01*
X116221376Y-122573541D01*
X116350084Y-122572969D01*
X116495696Y-122572488D01*
X116659033Y-122572095D01*
X116840915Y-122571782D01*
X117042161Y-122571545D01*
X117263593Y-122571379D01*
X117506029Y-122571277D01*
X117770290Y-122571235D01*
X117844024Y-122571233D01*
X118104838Y-122571239D01*
G37*
G36*
X128831356Y-118787713D02*
G01*
X129087647Y-118787756D01*
X129342361Y-118787835D01*
X129594483Y-118787951D01*
X129842993Y-118788102D01*
X130086877Y-118788291D01*
X130325114Y-118788515D01*
X130556690Y-118788776D01*
X130780586Y-118789073D01*
X130995784Y-118789406D01*
X131201268Y-118789775D01*
X131396021Y-118790181D01*
X131579024Y-118790623D01*
X131749261Y-118791100D01*
X131905715Y-118791614D01*
X132047367Y-118792165D01*
X132173201Y-118792751D01*
X132282200Y-118793373D01*
X132373345Y-118794031D01*
X132445621Y-118794725D01*
X132498008Y-118795456D01*
X132529491Y-118796222D01*
X132539118Y-118796962D01*
X132531064Y-118805319D01*
X132507257Y-118829199D01*
X132468228Y-118868076D01*
X132414508Y-118921428D01*
X132346630Y-118988729D01*
X132265124Y-119069455D01*
X132170523Y-119163083D01*
X132063356Y-119269088D01*
X131944157Y-119386945D01*
X131813455Y-119516131D01*
X131671784Y-119656121D01*
X131519674Y-119806392D01*
X131357656Y-119966418D01*
X131186263Y-120135675D01*
X131006025Y-120313640D01*
X130817474Y-120499789D01*
X130621142Y-120693596D01*
X130417560Y-120894538D01*
X130207259Y-121102090D01*
X129990771Y-121315729D01*
X129768627Y-121534930D01*
X129541359Y-121759169D01*
X129309499Y-121987921D01*
X129073576Y-122220663D01*
X128834125Y-122456869D01*
X128591674Y-122696017D01*
X128346757Y-122937582D01*
X128099904Y-123181038D01*
X127851647Y-123425864D01*
X127602518Y-123671533D01*
X127353047Y-123917522D01*
X127103767Y-124163307D01*
X126855208Y-124408363D01*
X126607903Y-124652166D01*
X126362382Y-124894192D01*
X126119177Y-125133917D01*
X125878820Y-125370817D01*
X125641842Y-125604366D01*
X125408775Y-125834042D01*
X125180149Y-126059319D01*
X124956497Y-126279674D01*
X124738350Y-126494583D01*
X124526238Y-126703520D01*
X124320695Y-126905963D01*
X124122251Y-127101386D01*
X123931437Y-127289266D01*
X123748786Y-127469078D01*
X123574828Y-127640298D01*
X123410095Y-127802402D01*
X123255119Y-127954865D01*
X123180759Y-128028003D01*
X123110073Y-128097136D01*
X123044690Y-128160341D01*
X122986331Y-128216010D01*
X122936714Y-128262536D01*
X122897560Y-128298312D01*
X122870588Y-128321732D01*
X122857518Y-128331189D01*
X122856547Y-128330928D01*
X122858140Y-128317822D01*
X122862884Y-128283517D01*
X122870573Y-128229428D01*
X122880999Y-128156969D01*
X122893957Y-128067556D01*
X122909239Y-127962604D01*
X122926640Y-127843528D01*
X122945951Y-127711744D01*
X122966967Y-127568665D01*
X122989481Y-127415707D01*
X123013287Y-127254286D01*
X123038177Y-127085815D01*
X123053734Y-126980668D01*
X123251314Y-125645954D01*
X128828602Y-120370738D01*
X126722969Y-120367850D01*
X126465494Y-120367493D01*
X126229909Y-120367153D01*
X126015242Y-120366818D01*
X125820521Y-120366476D01*
X125644773Y-120366115D01*
X125487025Y-120365724D01*
X125346307Y-120365292D01*
X125221645Y-120364806D01*
X125112067Y-120364256D01*
X125016600Y-120363630D01*
X124934274Y-120362915D01*
X124864115Y-120362101D01*
X124805151Y-120361175D01*
X124756409Y-120360127D01*
X124716919Y-120358945D01*
X124685706Y-120357616D01*
X124661800Y-120356130D01*
X124644227Y-120354475D01*
X124632016Y-120352639D01*
X124624195Y-120350611D01*
X124619790Y-120348379D01*
X124617830Y-120345931D01*
X124617342Y-120343256D01*
X124617335Y-120342739D01*
X124618934Y-120326800D01*
X124623511Y-120290846D01*
X124630740Y-120237136D01*
X124640292Y-120167929D01*
X124651839Y-120085486D01*
X124665054Y-119992064D01*
X124679610Y-119889924D01*
X124695177Y-119781326D01*
X124711430Y-119668527D01*
X124728039Y-119553789D01*
X124744678Y-119439371D01*
X124761018Y-119327531D01*
X124776732Y-119220529D01*
X124791492Y-119120626D01*
X124804970Y-119030079D01*
X124816839Y-118951150D01*
X124826771Y-118886096D01*
X124834438Y-118837178D01*
X124839512Y-118806654D01*
X124841570Y-118796809D01*
X124853325Y-118796010D01*
X124886903Y-118795248D01*
X124941286Y-118794523D01*
X125015457Y-118793834D01*
X125108399Y-118793182D01*
X125219093Y-118792567D01*
X125346524Y-118791989D01*
X125489673Y-118791447D01*
X125647523Y-118790942D01*
X125819057Y-118790474D01*
X126003258Y-118790042D01*
X126199108Y-118789647D01*
X126405589Y-118789289D01*
X126621686Y-118788967D01*
X126846380Y-118788681D01*
X127078654Y-118788433D01*
X127317490Y-118788221D01*
X127561872Y-118788045D01*
X127810782Y-118787906D01*
X128063203Y-118787803D01*
X128318117Y-118787736D01*
X128574507Y-118787706D01*
X128831356Y-118787713D01*
G37*
%TO.C,R2*%
X163460000Y-102630000D02*
X156920000Y-102630000D01*
X163460000Y-105370000D02*
X156920000Y-105370000D01*
X163460000Y-105040000D02*
X163460000Y-105370000D01*
X163460000Y-102960000D02*
X163460000Y-102630000D01*
X156920000Y-102630000D02*
X156920000Y-102960000D01*
X156920000Y-105370000D02*
X156920000Y-105040000D01*
%TO.C,R3*%
X152960000Y-79540000D02*
X152630000Y-79540000D01*
X152630000Y-86080000D02*
X152960000Y-86080000D01*
X155370000Y-86080000D02*
X155040000Y-86080000D01*
X155040000Y-79540000D02*
X155370000Y-79540000D01*
X155370000Y-79540000D02*
X155370000Y-86080000D01*
X152630000Y-79540000D02*
X152630000Y-86080000D01*
%TO.C,A1*%
X138010000Y-112970000D02*
X138010000Y-131010000D01*
X143220000Y-128340000D02*
X140680000Y-128340000D01*
X181450000Y-131010000D02*
X181450000Y-112970000D01*
X181450000Y-112970000D02*
X138010000Y-112970000D01*
X143220000Y-128340000D02*
X143220000Y-131010000D01*
X140680000Y-115640000D02*
X140680000Y-112970000D01*
X178780000Y-115640000D02*
X178780000Y-112970000D01*
X178780000Y-128340000D02*
X178780000Y-131010000D01*
X140680000Y-128340000D02*
X140680000Y-131010000D01*
X143220000Y-128340000D02*
X178780000Y-128340000D01*
X138010000Y-131010000D02*
X140680000Y-131010000D01*
X143220000Y-131010000D02*
X181450000Y-131010000D01*
X140680000Y-115640000D02*
X178780000Y-115640000D01*
%TO.C,J2*%
X83750000Y-97055000D02*
X94250000Y-97055000D01*
X93210000Y-106308311D02*
X93210000Y-118771689D01*
X95310000Y-98115000D02*
X95310000Y-126965000D01*
X91261744Y-104673530D02*
X86161744Y-105572798D01*
X94250000Y-128025000D02*
X83750000Y-128025000D01*
X96204338Y-107250000D02*
X95771325Y-107000000D01*
X84790000Y-107207579D02*
X84790000Y-117872421D01*
X95771325Y-107000000D02*
X96204338Y-106750000D01*
X96204338Y-106750000D02*
X96204338Y-107250000D01*
X91261744Y-120406470D02*
X86161744Y-119507202D01*
X82690000Y-126965000D02*
X82690000Y-98115000D01*
X86161744Y-105572798D02*
G75*
G03*
X84790000Y-107207579I288259J-1634783D01*
G01*
X93210000Y-106308311D02*
G75*
G03*
X91261744Y-104673530I-1659999J1D01*
G01*
X83750000Y-97055000D02*
G75*
G03*
X82690000Y-98115000I1J-1060001D01*
G01*
X95310000Y-98115000D02*
G75*
G03*
X94250000Y-97055000I-1060001J-1D01*
G01*
X91261742Y-120406481D02*
G75*
G03*
X93210000Y-118771689I288258J1634781D01*
G01*
X82690000Y-126965000D02*
G75*
G03*
X83750000Y-128025000I1060000J0D01*
G01*
X94250000Y-128025000D02*
G75*
G03*
X95310000Y-126965000I0J1060000D01*
G01*
X84789999Y-117872421D02*
G75*
G03*
X86161744Y-119507202I1660001J1D01*
G01*
%TO.C,F1*%
X94830000Y-94060000D02*
X101770000Y-94060000D01*
X94830000Y-77860000D02*
X94830000Y-94060000D01*
X101770000Y-77860000D02*
X94830000Y-77860000D01*
X98300000Y-85210000D02*
X98300000Y-86710000D01*
X100300000Y-84360000D02*
X100300000Y-87560000D01*
X101770000Y-94060000D02*
X101770000Y-77860000D01*
X96300000Y-87560000D02*
X96300000Y-84360000D01*
%TO.C,C1*%
X118370000Y-86000000D02*
G75*
G03*
X118370000Y-86000000I-6370000J0D01*
G01*
D13*
%TO.C,U3*%
X156250000Y-99770000D02*
X163750000Y-99770000D01*
X163750000Y-90230000D02*
X156250000Y-90230000D01*
D14*
X154690000Y-91200000D02*
G75*
G03*
X154690000Y-91200000I-100000J0D01*
G01*
D12*
%TO.C,R1*%
X108270000Y-118930000D02*
X101730000Y-118930000D01*
X101730000Y-118930000D02*
X101730000Y-119260000D01*
X108270000Y-119260000D02*
X108270000Y-118930000D01*
X108270000Y-121670000D02*
X101730000Y-121670000D01*
X108270000Y-121340000D02*
X108270000Y-121670000D01*
X101730000Y-121670000D02*
X101730000Y-121340000D01*
%TO.C,L1*%
X130620000Y-98500000D02*
G75*
G03*
X130620000Y-98500000I-6120000J0D01*
G01*
%TO.C,J3*%
X172358256Y-86673530D02*
X177058256Y-87502267D01*
X172358256Y-102406470D02*
X177058256Y-101577733D01*
X167215662Y-88750000D02*
X167648675Y-89000000D01*
X178430000Y-99942952D02*
X178430000Y-89137048D01*
X167648675Y-89000000D02*
X167215662Y-89250000D01*
X179670000Y-110025000D02*
X169170000Y-110025000D01*
X169170000Y-79055000D02*
X179670000Y-79055000D01*
X180730000Y-80115000D02*
X180730000Y-108965000D01*
X168110000Y-108965000D02*
X168110000Y-80115000D01*
X167215662Y-89250000D02*
X167215662Y-88750000D01*
X170410000Y-100771689D02*
X170410000Y-88308311D01*
X172358256Y-86673529D02*
G75*
G03*
X170410000Y-88308311I-288256J-1634781D01*
G01*
X168110000Y-108965000D02*
G75*
G03*
X169170000Y-110025000I1060001J1D01*
G01*
X169170000Y-79055000D02*
G75*
G03*
X168110000Y-80115000I0J-1060000D01*
G01*
X178430000Y-89137048D02*
G75*
G03*
X177058256Y-87502267I-1659999J1D01*
G01*
X179670000Y-110025000D02*
G75*
G03*
X180730000Y-108965000I-1J1060001D01*
G01*
X170410000Y-100771689D02*
G75*
G03*
X172358256Y-102406470I1659999J-1D01*
G01*
X180730000Y-80115000D02*
G75*
G03*
X179670000Y-79055000I-1060000J0D01*
G01*
X177058256Y-101577733D02*
G75*
G03*
X178430000Y-99942952I-288255J1634780D01*
G01*
%TO.C,J1*%
X84670000Y-86610000D02*
X84670000Y-84010000D01*
X87330000Y-86610000D02*
X87330000Y-84010000D01*
X87330000Y-87880000D02*
X87330000Y-89210000D01*
X87330000Y-86610000D02*
X84670000Y-86610000D01*
X87330000Y-84010000D02*
X84670000Y-84010000D01*
X87330000Y-89210000D02*
X86000000Y-89210000D01*
%TO.C,D2*%
X159710000Y-81455000D02*
X159710000Y-84545000D01*
X165260000Y-83000462D02*
G75*
G03*
X159710000Y-81455170I-2990000J462D01*
G01*
X159710000Y-84544830D02*
G75*
G03*
X165260000Y-82999538I2560000J1544830D01*
G01*
X164770000Y-83000000D02*
G75*
G03*
X164770000Y-83000000I-2500000J0D01*
G01*
%TD*%
M02*
